#!OML:ASF H:\Dans Jumps\Project 1\Capture day 1\Session 1\subject.ASF
:FULLY-SPECIFIED
:DEGREES
266
root 0.753719 17.4337 -14.5 9.40935 -0.59264 -1.38689
lowerback 1.41335 -0.536267 0.561472
upperback 4.36949 -0.776545 1.85432
thorax 3.72092 -0.404681 1.58077
lowerneck -14.0854 0.577312 -1.88617
upperneck 26.5898 1.49629 -0.682904
head 10.8905 0.404775 0.27528
rclavicle 5.66536e-015 1.31198e-014
rhumerus -21.613 -19.3429 -77.9264
rradius 25.1386
rwrist 33.4038
rhand -18.3541 -25.4425
rfingers 7.12502
rthumb 7.9286 -55.2738
lclavicle 5.66536e-015 1.31198e-014
lhumerus -18.9056 2.67585 85.6586
lradius 19.4618
lwrist 2.12841
lhand -24.4133 -3.56487
lfingers 7.12502
lthumb 2.07816 26.4048
rfemur -21.5742 -2.37402 19.4157
rtibia 26.7888
rfoot -13.6499 -4.51425
rtoes 8.28717
lfemur -20.824 9.1411 -18.8951
ltibia 24.6795
lfoot -11.3764 4.61399
ltoes -9.44116
267
root 0.755508 17.4239 -14.5294 9.6433 -0.642978 -1.3722
lowerback 1.64273 -0.521545 0.550966
upperback 4.42379 -0.753838 1.85306
thorax 3.64741 -0.393802 1.58768
lowerneck -14.1386 0.592296 -1.89418
upperneck 26.2807 1.52208 -0.706478
head 10.7857 0.416575 0.270986
rclavicle -3.67752e-015 1.07344e-014
rhumerus -21.5466 -19.2591 -77.9259
rradius 25.2078
rwrist 33.2934
rhand -18.3364 -25.4459
rfingers 7.12502
rthumb 7.9457 -55.2766
lclavicle -3.67752e-015 1.07344e-014
lhumerus -18.9209 2.53476 85.6315
lradius 19.6172
lwrist 2.44666
lhand -24.4515 -3.55214
lfingers 7.12502
lthumb 2.04128 26.4178
rfemur -22.1905 -2.36593 19.4098
rtibia 27.228
rfoot -13.7004 -4.50185
rtoes 8.18407
lfemur -21.437 9.23716 -18.9901
ltibia 25.1229
lfoot -11.4477 4.60035
ltoes -9.52009
268
root 0.75744 17.4133 -14.5601 9.88606 -0.689247 -1.36249
lowerback 1.88451 -0.506989 0.546384
upperback 4.48301 -0.73137 1.85383
thorax 3.57205 -0.382885 1.59336
lowerneck -14.1845 0.60564 -1.89666
upperneck 25.9383 1.54517 -0.737496
head 10.6677 0.427347 0.262604
rclavicle 9.93923e-016 -1.19271e-014
rhumerus -21.4757 -19.1952 -77.9193
rradius 25.2713
rwrist 33.1992
rhand -18.3338 -25.4317
rfingers 7.12502
rthumb 7.94818 -55.2623
lclavicle 9.93923e-016 -1.19271e-014
lhumerus -18.9395 2.37821 85.607
lradius 19.783
lwrist 2.7972
lhand -24.4777 -3.50135
lfingers 7.12502
lthumb 2.01599 26.4689
rfemur -22.8255 -2.36227 19.4095
rtibia 27.6752
rfoot -13.7533 -4.4861
rtoes 8.08576
lfemur -22.0778 9.33385 -19.084
ltibia 25.5868
lfoot -11.5226 4.58547
ltoes -9.60561
269
root 0.759504 17.402 -14.5919 10.1399 -0.730471 -1.35908
lowerback 2.13492 -0.493096 0.54948
upperback 4.54602 -0.709811 1.85695
thorax 3.49584 -0.372212 1.5971
lowerneck -14.2159 0.62025 -1.87298
upperneck 25.5578 1.5697 -0.797055
head 10.5342 0.438548 0.239648
rclavicle -5.76476e-015 2.38542e-015
rhumerus -21.4049 -19.1346 -77.908
rradius 25.335
rwrist 33.0996
rhand -18.3386 -25.4068
rfingers 7.12502
rthumb 7.94354 -55.2375
lclavicle -5.76476e-015 2.38542e-015
lhumerus -18.9582 2.21327 85.585
lradius 19.9503
lwrist 3.18081
lhand -24.504 -3.42355
lfingers 7.12502
lthumb 1.99061 26.5469
rfemur -23.4806 -2.36614 19.4167
rtibia 28.1285
rfoot -13.8065 -4.4632
rtoes 7.99243
lfemur -22.7475 9.42928 -19.1749
ltibia 26.07
lfoot -11.6023 4.56652
ltoes -9.68245
270
root 0.761746 17.3899 -14.6248 10.4042 -0.763778 -1.36313
lowerback 2.39427 -0.480957 0.562195
upperback 4.61102 -0.690521 1.86316
thorax 3.41675 -0.362404 1.59858
lowerneck -14.2402 0.633466 -1.83677
upperneck 25.152 1.59192 -0.87131
head 10.3912 0.448587 0.209081
rclavicle -4.07509e-015 -5.1684e-015
rhumerus -21.3382 -19.0686 -77.8926
rradius 25.4005
rwrist 32.9886
rhand -18.3462 -25.3874
rfingers 7.12502
rthumb 7.93623 -55.2184
lclavicle -4.07509e-015 -5.1684e-015
lhumerus -18.9836 2.03305 85.5667
lradius 20.1209
lwrist 3.60349
lhand -24.5435 -3.32188
lfingers 7.12502
lthumb 1.95243 26.6489
rfemur -24.1547 -2.38199 19.434
rtibia 28.587
rfoot -13.8601 -4.43562
rtoes 7.88531
lfemur -23.444 9.52127 -19.2612
ltibia 26.5709
lfoot -11.6878 4.54302
ltoes -9.75128
271
root 0.764173 17.3771 -14.6587 10.6827 -0.792064 -1.37588
lowerback 2.65674 -0.469934 0.584804
upperback 4.67933 -0.672705 1.87284
thorax 3.33946 -0.353079 1.59802
lowerneck -14.277 0.643921 -1.80657
upperneck 24.7397 1.61064 -0.942083
head 10.2491 0.456956 0.180545
rclavicle -2.08724e-015 4.37326e-015
rhumerus -21.2725 -18.9962 -77.8745
rradius 25.4707
rwrist 32.8666
rhand -18.3583 -25.3699
rfingers 7.12502
rthumb 7.92456 -55.2013
lclavicle -2.08724e-015 4.37326e-015
lhumerus -19.0078 1.84679 85.5507
lradius 20.2829
lwrist 4.04808
lhand -24.5937 -3.24257
lfingers 7.12502
lthumb 1.90401 26.7287
rfemur -24.8517 -2.40911 19.4633
rtibia 29.0499
rfoot -13.9127 -4.4019
rtoes 7.75982
lfemur -24.1699 9.60807 -19.3417
ltibia 27.0892
lfoot -11.7777 4.51916
ltoes -9.80484
272
root 0.766706 17.3636 -14.6935 10.9757 -0.820917 -1.39678
lowerback 2.92 -0.458292 0.613542
upperback 4.74965 -0.654014 1.88627
thorax 3.2639 -0.343199 1.59781
lowerneck -14.3312 0.653231 -1.78748
upperneck 24.333 1.62835 -1.00378
head 10.1132 0.464805 0.157218
rclavicle -6.55989e-015 3.57812e-015
rhumerus -21.2104 -18.9108 -77.854
rradius 25.5457
rwrist 32.7279
rhand -18.3713 -25.3581
rfingers 7.12502
rthumb 7.91197 -55.19
lclavicle -6.55989e-015 3.57812e-015
lhumerus -19.031 1.66829 85.535
lradius 20.4259
lwrist 4.48678
lhand -24.65 -3.2107
lfingers 7.12502
lthumb 1.84957 26.761
rfemur -25.5728 -2.44129 19.5035
rtibia 29.5177
rfoot -13.9643 -4.36251
rtoes 7.63324
lfemur -24.923 9.69618 -19.4178
ltibia 27.622
lfoot -11.8719 4.49456
ltoes -9.85026
273
root 0.769095 17.3493 -14.7292 11.283 -0.845725 -1.42477
lowerback 3.18376 -0.44726 0.645244
upperback 4.82174 -0.636062 1.90373
thorax 3.1901 -0.333679 1.6
lowerneck -14.4077 0.66131 -1.77976
upperneck 23.9359 1.64419 -1.05214
head 9.98571 0.472139 0.140504
rclavicle 9.93923e-015 5.56597e-015
rhumerus -21.1525 -18.8212 -77.8301
rradius 25.6257
rwrist 32.5792
rhand -18.3855 -25.3548
rfingers 7.12502
rthumb 7.89828 -55.1873
lclavicle 9.93923e-015 5.56597e-015
lhumerus -19.0546 1.49653 85.5185
lradius 20.5497
lwrist 4.903
lhand -24.7328 -3.25457
lfingers 7.12502
lthumb 1.76966 26.7178
rfemur -26.3175 -2.47716 19.555
rtibia 29.9928
rfoot -14.0154 -4.32586
rtoes 7.48817
lfemur -25.7038 9.78746 -19.4901
ltibia 28.1676
lfoot -11.9697 4.46304
ltoes -9.9033
274
root 0.771382 17.3345 -14.7653 11.6049 -0.876635 -1.45026
lowerback 3.43444 -0.434375 0.668387
upperback 4.90368 -0.616027 1.92126
thorax 3.13407 -0.323462 1.60687
lowerneck -14.4992 0.668605 -1.78698
upperneck 23.5324 1.65884 -1.08543
head 9.85923 0.479411 0.131558
rclavicle 9.93923e-017 -1.78906e-014
rhumerus -21.0817 -18.744 -77.807
rradius 25.6981
rwrist 32.4373
rhand -18.4058 -25.3584
rfingers 7.12502
rthumb 7.87865 -55.1916
lclavicle 9.93923e-017 -1.78906e-014
lhumerus -19.0605 1.3389 85.4971
lradius 20.6454
lwrist 5.27323
lhand -24.8339 -3.40699
lfingers 7.12502
lthumb 1.67201 26.5662
rfemur -27.0864 -2.51288 19.6059
rtibia 30.4785
rfoot -14.0694 -4.28465
rtoes 7.3485
lfemur -26.5067 9.88819 -19.5712
ltibia 28.7218
lfoot -12.0707 4.42776
ltoes -9.96532
275
root 0.773249 17.3189 -14.8021 11.9371 -0.91208 -1.47293
lowerback 3.6887 -0.419569 0.679342
upperback 4.98602 -0.59345 1.93983
thorax 3.07665 -0.312411 1.62155
lowerneck -14.6016 0.676937 -1.79079
upperneck 23.1289 1.67492 -1.12181
head 9.73554 0.487326 0.121224
rclavicle 6.26172e-015 -5.96354e-015
rhumerus -21.0142 -18.6914 -77.7746
rradius 25.7574
rwrist 32.3291
rhand -18.4408 -25.3416
rfingers 7.12502
rthumb 7.84486 -55.1761
lclavicle 6.26172e-015 -5.96354e-015
lhumerus -19.0663 1.19208 85.474
lradius 20.716
lwrist 5.60613
lhand -24.9394 -3.60358
lfingers 7.12502
lthumb 1.57005 26.3704
rfemur -27.8762 -2.54246 19.6556
rtibia 30.9772
rfoot -14.1275 -4.24419
rtoes 7.22697
lfemur -27.3278 10.0032 -19.6606
ltibia 29.2809
lfoot -12.1735 4.38035
ltoes -10.0262
276
root 0.774695 17.3026 -14.8396 12.2746 -0.948098 -1.48443
lowerback 3.95049 -0.40355 0.672645
upperback 5.06879 -0.5693 1.95633
thorax 3.01571 -0.301129 1.64393
lowerneck -14.6933 0.682734 -1.78647
upperneck 22.7073 1.68635 -1.16572
head 9.6043 0.493344 0.106291
rclavicle 1.98785e-016 -3.97569e-016
rhumerus -20.9598 -18.6493 -77.7346
rradius 25.8131
rwrist 32.2349
rhand -18.4894 -25.3119
rfingers 7.12502
rthumb 7.798 -55.1481
lclavicle 1.98785e-016 -3.97569e-016
lhumerus -19.0781 1.0537 85.4485
lradius 20.7815
lwrist 5.90548
lhand -25.0215 -3.77237
lfingers 7.12502
lthumb 1.49077 26.2022
rfemur -28.6812 -2.56957 19.6948
rtibia 31.4906
rfoot -14.1922 -4.20477
rtoes 7.13718
lfemur -28.16 10.1272 -19.7665
ltibia 29.8416
lfoot -12.2771 4.31999
ltoes -10.0826
277
root 0.775737 17.2857 -14.8773 12.6188 -0.989928 -1.48341
lowerback 4.21066 -0.384807 0.647508
upperback 5.15585 -0.541935 1.96801
thorax 2.96029 -0.28879 1.67149
lowerneck -14.7682 0.688781 -1.76702
upperneck 22.256 1.69581 -1.22146
head 9.46045 0.498989 0.0844313
rclavicle -1.78906e-015 -1.59028e-015
rhumerus -20.909 -18.6273 -77.692
rradius 25.858
rwrist 32.1669
rhand -18.5461 -25.2751
rfingers 7.12502
rthumb 7.74328 -55.1133
lclavicle -1.78906e-015 -1.59028e-015
lhumerus -19.0851 0.919274 85.418
lradius 20.8428
lwrist 6.17764
lhand -25.064 -3.85899
lfingers 7.12502
lthumb 1.44975 26.1158
rfemur -29.5015 -2.59489 19.7215
rtibia 32.0175
rfoot -14.2618 -4.15878
rtoes 7.07822
lfemur -29.0013 10.2595 -19.891
ltibia 30.4019
lfoot -12.3803 4.25275
ltoes -10.1309
278
root 0.776239 17.2679 -14.9158 12.9606 -1.02974 -1.47354
lowerback 4.49331 -0.365543 0.607049
upperback 5.23632 -0.513748 1.97869
thorax 2.88567 -0.276493 1.70661
lowerneck -14.8314 0.696399 -1.73381
upperneck 21.8036 1.70654 -1.29075
head 9.31516 0.505005 0.0558307
rclavicle 9.93923e-016 -2.14687e-014
rhumerus -20.8883 -18.5989 -77.6401
rradius 25.9081
rwrist 32.0987
rhand -18.5933 -25.235
rfingers 7.12502
rthumb 7.69771 -55.0749
lclavicle 9.93923e-016 -2.14687e-014
lhumerus -19.1196 0.785789 85.3897
lradius 20.9094
lwrist 6.42168
lhand -25.1218 -3.90232
lfingers 7.12502
lthumb 1.39398 26.0729
rfemur -30.3284 -2.61891 19.7408
rtibia 32.5546
rfoot -14.3303 -4.11558
rtoes 7.03145
lfemur -29.8444 10.3942 -20.027
ltibia 30.9597
lfoot -12.4809 4.17727
ltoes -10.1739
